<svg width="124" height="130" viewBox="0 0 124 130" fill="none" xmlns="http://www.w3.org/2000/svg">
<path d="M55.6578 0.13572C55.1832 0.256183 52.8511 0.686409 50.4762 1.09112C5.87207 8.69809 -15.2251 65.9044 12.389 104.367C20.9884 116.344 40.7367 129.906 41.7148 124.506C41.8372 123.832 40.6616 122.978 37.7438 121.624C25.7733 116.065 14.9411 105.112 9.03091 92.5938C-12.4348 47.1276 24.2906 -4.32319 72.2483 4.02852C79.4527 5.28359 80.7039 2.66782 73.6435 1.11129C70.4299 0.402757 57.3916 -0.303999 55.6578 0.136315V0.13572ZM55.9456 13.5427C47.5121 14.8494 36.6596 19.3896 36.6596 21.6114C36.6596 23.3352 37.8775 23.2017 42.3288 20.9901C66.7106 8.8779 96.3948 22.1306 105.227 49.0716C119.907 93.8524 71.4441 131.76 34.6448 104.279C14.1961 89.009 9.48072 58.679 24.1603 36.8396C28.0556 31.0443 26.0058 28.5941 22.028 34.2914C-2.4802 69.3966 23.1077 118.982 64.4554 116.507C106.195 114.008 126.151 61.4206 97.4287 29.6195C86.8991 17.9613 69.9124 11.378 55.9462 13.5415L55.9456 13.5427ZM106.129 21.4488C105.273 22.349 105.927 23.9601 108.667 27.704C128.985 55.4579 122.333 96.9429 94.4358 116.46C81.8654 125.255 70.8284 127.692 50.1889 126.233C48.2452 126.096 47.8857 126.252 47.8857 127.237C47.8857 131.711 72.5898 130.498 84.8385 125.422C120.756 110.539 134.917 62.4946 113.267 28.9739C109.159 22.6137 107.093 20.4352 106.128 21.4494L106.129 21.4488ZM44.9521 44.1107C43.9311 45.2963 43.8436 46.6867 43.6873 64.2031C43.4305 92.9997 40.7045 92.1292 73.7739 73.8111C89.8903 64.8831 89.9806 65.1632 66.8658 52.4143C48.7938 42.4467 46.9782 41.7584 44.9521 44.1107V44.1107ZM64.9238 55.0052C82.4828 64.6481 82.5743 64.7081 81.3462 65.7798C79.9691 66.982 48.6583 84 47.8248 84C47.1554 84 47.0222 80.8353 47.0222 64.9324C47.0222 51.5574 47.2101 45.8642 47.6509 45.8642C47.9963 45.8642 55.7695 49.9778 64.9244 55.0052H64.9238Z" fill="black"/>
</svg>
