<svg width="28" height="22" viewBox="0 0 28 22" fill="none" xmlns="http://www.w3.org/2000/svg">
<path d="M27.333 2.84C26.333 3.333 25.333 3.507 24.16 3.667C25.333 3 26.16 2 26.493 0.666999C25.488 1.275 24.317 1.738 23.07 1.989L23 2.001C21.969 0.986999 20.56 0.355 19.004 0.334H19C16.16 0.334 13.667 2.841 13.667 5.841C13.667 6.334 13.667 6.668 13.84 7.001C9.26197 6.823 5.22097 4.664 2.52897 1.362L2.50697 1.334C2.08197 2.06 1.83097 2.932 1.83097 3.863C1.83097 3.972 1.83397 4.081 1.84097 4.189L1.83997 4.174C1.87397 6.052 2.84897 7.695 4.31297 8.655L4.33397 8.668C3.49397 8.668 2.66697 8.335 1.82697 8.001C1.82697 10.668 3.66697 12.841 6.15997 13.334C5.66697 13.507 5.15997 13.507 4.66697 13.507C4.33397 13.507 3.99997 13.507 3.66697 13.334C4.33397 15.507 6.33397 17.174 8.83997 17.174C7.03997 18.629 4.72397 19.509 2.20297 19.509C2.13197 19.509 2.06097 19.508 1.98997 19.507H2.00097H0.667969C3.03297 21.016 5.90397 21.936 8.98397 22H9.00097C19.001 22 24.508 13.667 24.508 6.493V5.826C25.655 5.036 26.601 4.039 27.311 2.882L27.335 2.84H27.333Z" fill="black"/>
</svg>
