<svg width="28" height="28" viewBox="0 0 28 28" fill="none" xmlns="http://www.w3.org/2000/svg">
<path d="M15.36 0.667007C17.76 0.667007 18.267 0.694007 19.493 0.747007C20.906 0.814007 21.88 1.04001 22.72 1.37401C23.6 1.70701 24.347 2.17401 25.08 2.90701C25.827 3.64001 26.28 4.38701 26.627 5.26701C26.96 6.10701 27.174 7.08001 27.24 8.50701C27.307 9.77401 27.32 10.267 27.32 12.934V15.067C27.32 17.734 27.307 18.227 27.24 19.494C27.217 20.659 26.994 21.764 26.604 22.788L26.626 22.721C26.279 23.601 25.826 24.348 25.093 25.081C24.346 25.828 23.6 26.281 22.72 26.628C21.88 26.961 20.907 27.175 19.493 27.241C18.226 27.308 17.72 27.321 15.053 27.321H12.933C10.266 27.321 9.77296 27.308 8.49296 27.241C7.32796 27.218 6.22296 26.995 5.19896 26.605L5.26596 26.627C4.34296 26.274 3.55596 25.753 2.90696 25.094L2.90596 25.093C2.23996 24.441 1.71396 23.649 1.37396 22.764L1.35896 22.719C0.991964 21.763 0.768964 20.657 0.745964 19.502V19.492C0.692964 18.45 0.662964 17.229 0.662964 16.002C0.662964 15.776 0.663964 15.55 0.665964 15.325V15.359V12.626C0.665964 10.226 0.692964 9.71901 0.745964 8.49301C0.812964 7.08001 1.03896 6.10601 1.35896 5.26601C1.70596 4.38601 2.15896 3.63901 2.90596 2.90601C3.55096 2.23901 4.33996 1.71601 5.22296 1.38701L5.26596 1.37301C6.22096 1.00201 7.32596 0.774007 8.48096 0.747007H8.49296C9.71996 0.694007 10.226 0.667007 12.626 0.667007H15.36ZM15.387 3.06701H12.6C10.293 3.06701 9.79996 3.09401 8.59996 3.14701C7.30696 3.20001 6.59996 3.41401 6.13296 3.60001C5.50596 3.84001 5.06596 4.13301 4.59996 4.60001C4.13396 5.06701 3.83996 5.50701 3.59996 6.13301C3.42696 6.60001 3.19996 7.30601 3.14696 8.61301C3.09396 9.81301 3.06696 10.293 3.06696 12.613V15.386C3.06696 17.706 3.09396 18.186 3.14696 19.386C3.19996 20.679 3.41396 21.386 3.59996 21.853C3.83996 22.48 4.13296 22.92 4.59996 23.386C5.06696 23.852 5.50696 24.146 6.13296 24.386C6.59996 24.573 7.30596 24.786 8.61296 24.839C9.90596 24.906 10.373 24.919 13.253 24.919H14.733C17.626 24.919 18.08 24.906 19.386 24.839C20.679 24.786 21.386 24.572 21.853 24.386C22.48 24.146 22.92 23.853 23.386 23.386C23.852 22.919 24.146 22.479 24.386 21.853C24.573 21.386 24.786 20.68 24.839 19.386C24.906 18.079 24.919 17.626 24.919 14.733V13.266C24.919 10.373 24.906 9.90601 24.839 8.59901C24.786 7.30601 24.572 6.59901 24.386 6.13201C24.16 5.53101 23.819 5.01801 23.387 4.60001L23.386 4.59901C22.966 4.16601 22.454 3.82501 21.881 3.60801L21.853 3.59901C21.121 3.32301 20.275 3.15801 19.391 3.14601H19.386C18.358 3.09401 17.155 3.06401 15.944 3.06401C15.748 3.06401 15.552 3.06501 15.356 3.06601H15.386L15.387 3.06701ZM14 7.14701C17.781 7.14701 20.847 10.212 20.847 13.994C20.847 17.776 17.782 20.841 14 20.841C10.219 20.841 7.15296 17.776 7.15296 13.994C7.15296 10.212 10.218 7.14701 14 7.14701ZM14 9.54701C11.544 9.54701 9.55296 11.538 9.55296 13.994C9.55296 16.45 11.544 18.441 14 18.441C16.456 18.441 18.447 16.45 18.447 13.994C18.447 11.538 16.456 9.54701 14 9.54701ZM21.107 5.28001C21.991 5.28001 22.707 5.99601 22.707 6.88001C22.707 7.76401 21.991 8.48001 21.107 8.48001C20.223 8.48001 19.507 7.76401 19.507 6.88001C19.507 5.99601 20.223 5.28001 21.107 5.28001Z" fill="black"/>
</svg>
